<svg width="1200" height="280" viewBox="0 0 1200 280" fill="none" xmlns="http://www.w3.org/2000/svg">
  <rect width="1200" height="280" rx="20" fill="#FCF4EC"/>

  <g font-family="Arial, sans-serif" font-size="16" fill="#5B2F13">
    <rect x="30" y="90" width="190" height="100" rx="14" fill="#FFF" stroke="#E7C5A3"/>
    <text x="50" y="130" font-weight="700">Analyze Repo</text>
    <text x="50" y="156">Infer framework + scope</text>

    <rect x="260" y="90" width="190" height="100" rx="14" fill="#FFF" stroke="#E7C5A3"/>
    <text x="280" y="130" font-weight="700">Setup Sandbox</text>
    <text x="280" y="156">Install + configure env</text>

    <rect x="490" y="90" width="190" height="100" rx="14" fill="#FFF" stroke="#E7C5A3"/>
    <text x="510" y="130" font-weight="700">Run API Tests</text>
    <text x="510" y="156">Generate + execute files</text>

    <rect x="720" y="90" width="190" height="100" rx="14" fill="#FFF" stroke="#E7C5A3"/>
    <text x="740" y="130" font-weight="700">Run Browser Tests</text>
    <text x="740" y="156">UI actions + assertions</text>

    <rect x="950" y="90" width="220" height="100" rx="14" fill="#FFF" stroke="#E7C5A3"/>
    <text x="970" y="130" font-weight="700">Persist Results</text>
    <text x="970" y="156">Bugs, screenshots, summary</text>
  </g>

  <g stroke="#C7793F" stroke-width="3" stroke-linecap="round" stroke-linejoin="round">
    <path d="M220 140 H248"/>
    <path d="M241 133 L250 140 L241 147"/>

    <path d="M450 140 H478"/>
    <path d="M471 133 L480 140 L471 147"/>

    <path d="M680 140 H708"/>
    <path d="M701 133 L710 140 L701 147"/>

    <path d="M910 140 H938"/>
    <path d="M931 133 L940 140 L931 147"/>
  </g>
</svg>
